<?xml version="1.0" encoding="utf-8"?>
<!-- Generator: Adobe Illustrator 16.2.0, SVG Export Plug-In . SVG Version: 6.00 Build 0)  -->
<!DOCTYPE svg PUBLIC "-//W3C//DTD SVG 1.1//EN" "http://www.w3.org/Graphics/SVG/1.1/DTD/svg11.dtd">
<svg version="1.1" id="TV" xmlns="http://www.w3.org/2000/svg" xmlns:xlink="http://www.w3.org/1999/xlink" x="0px" y="0px"
	 width="145px" height="126px" viewBox="225.5 330.5 145 126" enable-background="new 225.5 330.5 145 126" xml:space="preserve">
<g>
	<ellipse fill="#2A2A85" cx="297.406" cy="370.982" rx="11.451" ry="9.717"/>
	<path fill="#2A2A85" d="M333.232,369.51l-52.208-0.853l-22.791-0.088c1.619,3.356,1.296,7.509,1.502,11.483l2.768,36.661
		c0,0-0.206,10.512,0.854,12.25c1.767,0.501,3.828,0.354,5.742,0.53c0.795,2.855,1.295,5.801,2.65,8.422l5.86,0.736
		c0.589-2.856,3.415-9.276,3.415-9.276c10.66,0.678,21.143,1.855,31.213,3.946c0,0,3.21,11.777,4.594,11.514
		c1.295-0.236,2.533,0.618,3.71,0.206c1.442-3.946,0.942-8.687,3.298-12.25c3.092-0.972,5.979-2.738,9.069-3.416
		c0.56,2.474,2.032,7.244,2.032,7.244c0.766,0.883,2.267,0.677,3.504,0.766c0,0,0.352-7.399,0.675-10.64
		c2.032-1.531,7.422-3.318,7.422-3.318c2.827-10.012,7.36-34.863,8.304-36.66C350.46,382.821,336.422,371.473,333.232,369.51z"/>
	<path fill="#FFFFFF" d="M308.411,372.074l19.288,1.178l3.416,0.088c-1.797,4.477-2.18,9.541-3.004,14.399l-1.797,16.812
		l-4.151,25.473l-27.061-2.562l-20.347-0.941l-9.276-0.235l-0.442-15.548l-2.326-36.955l-0.118-2.032
		c3.328,0.236,6.743,0.03,10.012-0.206l20.79,0.413L308.411,372.074z"/>
	<path fill="#2A2A85" d="M287.092,374.105l-17.58,0.617c-0.354,0.236-1.208,0-1.708,0.236c-1.237,7.067-0.206,14.37-0.942,21.614
		l-1.501-16.933l-0.324-6.302C272.457,372.486,279.877,373.517,287.092,374.105z"/>
	<path fill="#2A2A85" d="M329.288,376.02c-7.597,0.384-15.577,0.441-22.379-1.708l-3.092-0.323l0.854-0.324
		C312.682,374.93,321.956,373.163,329.288,376.02z"/>
	<path fill="#2A2A85" d="M296.161,374.636c-2.208-0.089-4.682,1.119-6.596-0.207c0.913-0.913,3.033-0.559,4.358-0.323
		L296.161,374.636z"/>
	<path fill="#2A2A85" d="M258.765,411.267c-0.619-3.593-1.414-7.097-1.385-10.954l2.356,2.238L258.765,411.267z"/>
	<path fill="#2A2A85" d="M267.274,404.995c-0.619,0.059-0.501-0.736-0.619-1.178c-0.294-0.942,0.383-1.562,0.619-2.356
		C267.775,402.433,267.775,404.022,267.274,404.995z"/>
	<path fill="#2A2A85" d="M268.894,415.743c-0.5,1.767-0.942,3.504-1.178,5.33c-0.942-4.388-0.441-9.511-0.441-14.163
		C268.099,409.735,269.807,412.415,268.894,415.743z"/>
	<path fill="#FFFFFF" d="M275.814,434.294c-0.265,0.736-0.677,1.562-0.53,2.326c-0.471,0.265-1.207,0.029-1.708-0.206l-1.502-6.508
		C273.37,431.261,276.668,431.85,275.814,434.294z"/>
	<path fill="#2A2A85" d="M310.855,435.766l-0.119,2.562l-2.209-3.71C309.441,434.647,310.531,434.735,310.855,435.766z"/>
	<path fill="#FFFFFF" d="M318.217,438.122c0.059,1.531,0.295,3.003,0.206,4.594l-1.914-0.324l-1.06-5.771
		C316.244,437.444,317.273,437.651,318.217,438.122z"/>
	<g>
		<ellipse fill="#2A2A85" cx="322.128" cy="384.969" rx="4.034" ry="4.164"/>
		<ellipse fill="#FFFFFF" cx="322.128" cy="384.969" rx="2.474" ry="2.603"/>
		
			<rect x="319.202" y="384.52" transform="matrix(-0.4235 -0.9059 0.9059 -0.4235 109.9325 840.2845)" fill="#2A2A85" width="6.258" height="1.288"/>
	</g>
	<path fill="#2E3192" d="M304.238,418.602c5.848,0.28,10.815-4.232,11.095-10.082l0.781-16.324
		c0.28-5.849-4.234-10.815-10.082-11.096l-22.022-1.054c-5.848-0.28-10.815,4.234-11.095,10.082l-0.781,16.324
		c-0.28,5.848,4.234,10.814,10.081,11.095L304.238,418.602z"/>
	<g>
		<polygon fill="#FFFFFF" points="344.211,420.938 344.607,419.062 328.631,423.802 		"/>
		<polygon fill="#FFFFFF" points="345.031,417.057 345.378,415.416 330.889,418.901 		"/>
		<polygon fill="#FFFFFF" points="345.879,413.045 346.195,411.549 332.41,414.001 		"/>
		<polygon fill="#FFFFFF" points="346.725,409.042 347.01,407.696 333.932,409.102 		"/>
		<polygon fill="#FFFFFF" points="347.568,405.05 347.82,403.858 335.452,404.201 		"/>
		<polygon fill="#FFFFFF" points="348.41,401.069 348.628,400.038 336.975,399.302 		"/>
		<polygon fill="#FFFFFF" points="349.248,397.104 349.432,396.239 338.495,394.401 		"/>
		<polygon fill="#FFFFFF" points="350.083,393.153 350.229,392.464 340.016,389.501 		"/>
		<polygon fill="#FFFFFF" points="350.914,389.222 351.021,388.717 341.537,384.601 		"/>
	</g>
	<polygon fill="#FFFFFF" points="333.6,377.424 328.447,407.422 335.072,377.976 	"/>
	<path fill="#2A2A85" d="M305.013,365.584c0.491-0.736,21.348-20.367,21.348-20.367l18.404,4.417l-18.158-2.699l-19.385,19.876
		L305.013,365.584z"/>
	<circle fill="#2A2A85" cx="345.501" cy="349.879" r="2.082"/>
	<polygon fill="#2A2A85" points="291.271,365.584 267.96,346.689 292.253,363.866 	"/>
	<circle fill="#2A2A85" cx="267.224" cy="346.198" r="1.562"/>
	<polygon fill="#2A2A85" points="283.664,431.838 283.91,434.047 293.971,433.311 	"/>
	<polygon fill="#2A2A85" points="315.318,367.302 329.552,367.547 317.527,365.093 	"/>
	<polygon fill="#2A2A85" points="283.174,366.811 277.53,367.302 283.419,365.339 	"/>
	<polygon fill="#2A2A85" points="341.084,428.157 341.33,433.801 342.557,427.667 	"/>
	<polygon fill="#2A2A85" points="354.826,394.294 351.882,410.244 356.544,395.767 	"/>
	<ellipse fill="#2A2A85" cx="320.963" cy="395.276" rx="1.909" ry="2.256"/>
	<ellipse fill="#2A2A85" cx="319.98" cy="405.827" rx="1.91" ry="2.256"/>
	<ellipse fill="#2A2A85" cx="319.49" cy="415.642" rx="1.908" ry="2.256"/>
	<path fill="#2A2A85" d="M270.168,424.477c0,0,43.68,0.981,49.077,3.927l0.491-3.682
		C319.736,424.722,274.094,423.25,270.168,424.477z"/>
	<path fill="#FFFFFF" d="M300.719,367.915l-7.679-0.981c0.009-0.049,0.02-0.097,0.031-0.145l4.029-0.653l-3.477-0.525
		c1.532-1.996,5.255-1.743,5.255-1.743c-8.098-0.981-9.141,4.171-9.141,4.171h3.251c0-0.001,0-0.003,0-0.005L300.719,367.915z"/>
	<path fill="#FFFFFF" d="M277.537,405.566c0,0-5.889-24.049,9.325-22.33C286.862,383.236,273.611,383.728,277.537,405.566z"/>
	<path fill="#FFFFFF" d="M313.195,402.476c0,0,0.736,15.215-15.213,12.516C297.981,414.991,309.76,416.463,313.195,402.476z"/>
</g>
</svg>
