<?xml version="1.0" encoding="utf-8"?>
<!-- Generator: Adobe Illustrator 16.2.0, SVG Export Plug-In . SVG Version: 6.00 Build 0)  -->
<!DOCTYPE svg PUBLIC "-//W3C//DTD SVG 1.1//EN" "http://www.w3.org/Graphics/SVG/1.1/DTD/svg11.dtd">
<svg version="1.1" id="Button" xmlns="http://www.w3.org/2000/svg" xmlns:xlink="http://www.w3.org/1999/xlink" x="0px" y="0px"
	 width="72px" height="78px" viewBox="227.5 172.5 72 78" enable-background="new 227.5 172.5 72 78" xml:space="preserve">
<radialGradient id="SVGID_1_" cx="181.3418" cy="554.6699" r="28.3203" gradientTransform="matrix(1 0 0 -1 84 767)" gradientUnits="userSpaceOnUse">
	<stop  offset="0" style="stop-color:#FFFFFF"/>
	<stop  offset="1" style="stop-color:#404040"/>
</radialGradient>
<circle fill="url(#SVGID_1_)" cx="265.342" cy="212.33" r="28.32"/>
<g>
	<ellipse fill="#2A2A85" cx="261.812" cy="203.494" rx="4.211" ry="3.573"/>
	<path fill="#2A2A85" d="M274.987,202.953l-19.197-0.313l-8.381-0.033c0.596,1.235,0.477,2.761,0.552,4.223l1.018,13.481
		c0,0-0.076,3.865,0.314,4.504c0.65,0.184,1.408,0.13,2.112,0.195c0.292,1.05,0.477,2.133,0.974,3.097l2.155,0.271
		c0.217-1.051,1.256-3.411,1.256-3.411c3.919,0.249,7.774,0.682,11.478,1.451c0,0,1.18,4.331,1.689,4.233
		c0.477-0.086,0.931,0.228,1.365,0.076c0.53-1.451,0.346-3.194,1.212-4.504c1.137-0.357,2.198-1.007,3.335-1.256
		c0.206,0.91,0.747,2.664,0.747,2.664c0.282,0.325,0.834,0.249,1.289,0.281c0,0,0.129-2.722,0.248-3.913
		c0.747-0.563,2.729-1.22,2.729-1.22c1.039-3.681,2.707-12.82,3.053-13.48C281.321,207.848,276.16,203.675,274.987,202.953z"/>
	<path fill="#FFFFFF" d="M265.859,203.896l7.092,0.433l1.256,0.033c-0.66,1.646-0.801,3.508-1.104,5.295l-0.661,6.183l-1.527,9.366
		l-9.951-0.942l-7.482-0.346l-3.411-0.086l-0.162-5.717l-0.856-13.589l-0.043-0.748c1.224,0.087,2.479,0.011,3.682-0.076
		l7.645,0.152L265.859,203.896z"/>
	<path fill="#2A2A85" d="M258.02,204.643l-6.464,0.227c-0.13,0.087-0.444,0-0.628,0.087c-0.455,2.599-0.076,5.284-0.347,7.948
		l-0.552-6.226l-0.119-2.317C252.639,204.047,255.367,204.427,258.02,204.643z"/>
	<path fill="#2A2A85" d="M273.536,205.347c-2.793,0.141-5.728,0.163-8.229-0.628l-1.137-0.119l0.314-0.119
		C267.429,204.946,270.84,204.296,273.536,205.347z"/>
	<path fill="#2A2A85" d="M261.355,204.838c-0.812-0.033-1.722,0.411-2.425-0.076c0.335-0.335,1.115-0.206,1.602-0.119
		L261.355,204.838z"/>
	<path fill="#2A2A85" d="M247.604,218.308c-0.228-1.322-0.52-2.61-0.509-4.028l0.866,0.823L247.604,218.308z"/>
	<path fill="#2A2A85" d="M250.733,216.001c-0.228,0.021-0.184-0.271-0.228-0.433c-0.108-0.347,0.141-0.574,0.228-0.867
		C250.917,215.06,250.917,215.644,250.733,216.001z"/>
	<path fill="#2A2A85" d="M251.329,219.954c-0.184,0.65-0.347,1.289-0.433,1.96c-0.347-1.613-0.163-3.498-0.163-5.208
		C251.036,217.745,251.664,218.73,251.329,219.954z"/>
	<path fill="#FFFFFF" d="M253.873,226.775c-0.098,0.271-0.249,0.574-0.195,0.855c-0.174,0.097-0.444,0.01-0.628-0.076l-0.552-2.393
		C252.974,225.66,254.187,225.876,253.873,226.775z"/>
	<path fill="#2A2A85" d="M266.758,227.316l-0.043,0.942l-0.812-1.365C266.238,226.905,266.639,226.938,266.758,227.316z"/>
	<path fill="#FFFFFF" d="M269.465,228.183c0.021,0.563,0.108,1.104,0.076,1.689l-0.704-0.119l-0.39-2.122
		C268.74,227.934,269.119,228.01,269.465,228.183z"/>
	<g>
		<ellipse fill="#2A2A85" cx="270.904" cy="208.638" rx="1.483" ry="1.531"/>
		<ellipse fill="#FFFFFF" cx="270.904" cy="208.638" rx="0.909" ry="0.957"/>
		
			<rect x="269.818" y="208.487" transform="matrix(-0.4235 -0.9059 0.9059 -0.4235 196.6596 542.5916)" fill="#2A2A85" width="2.301" height="0.474"/>
	</g>
	<path fill="#2E3192" d="M264.325,221.005c2.15,0.103,3.977-1.557,4.08-3.707l0.287-6.003c0.104-2.15-1.557-3.977-3.707-4.08
		l-8.099-0.387c-2.15-0.103-3.977,1.557-4.08,3.708l-0.287,6.002c-0.103,2.15,1.557,3.977,3.707,4.08L264.325,221.005z"/>
	<g>
		<polygon fill="#FFFFFF" points="279.023,221.863 279.169,221.174 273.295,222.917 		"/>
		<polygon fill="#FFFFFF" points="279.325,220.437 279.453,219.833 274.125,221.115 		"/>
		<polygon fill="#FFFFFF" points="279.637,218.961 279.753,218.411 274.684,219.313 		"/>
		<polygon fill="#FFFFFF" points="279.948,217.489 280.053,216.995 275.244,217.512 		"/>
		<polygon fill="#FFFFFF" points="280.258,216.022 280.351,215.583 275.803,215.709 		"/>
		<polygon fill="#FFFFFF" points="280.568,214.558 280.648,214.179 276.362,213.908 		"/>
		<polygon fill="#FFFFFF" points="280.876,213.1 280.943,212.782 276.922,212.106 		"/>
		<polygon fill="#FFFFFF" points="281.183,211.647 281.237,211.394 277.481,210.305 		"/>
		<polygon fill="#FFFFFF" points="281.488,210.202 281.528,210.016 278.041,208.502 		"/>
	</g>
	<polygon fill="#FFFFFF" points="275.122,205.863 273.227,216.894 275.663,206.066 	"/>
	<path fill="#2A2A85" d="M264.61,201.509c0.18-0.271,7.85-7.489,7.85-7.489l6.768,1.624l-6.677-0.993l-7.128,7.309L264.61,201.509z"
		/>
	<circle fill="#2A2A85" cx="279.498" cy="195.734" r="0.766"/>
	<polygon fill="#2A2A85" points="259.557,201.509 250.985,194.562 259.917,200.878 	"/>
	<circle fill="#2A2A85" cx="250.714" cy="194.381" r="0.574"/>
	<polygon fill="#2A2A85" points="256.76,225.872 256.85,226.684 260.549,226.414 	"/>
	<polygon fill="#2A2A85" points="268.399,202.141 273.633,202.231 269.211,201.329 	"/>
	<polygon fill="#2A2A85" points="256.579,201.96 254.504,202.141 256.669,201.419 	"/>
	<polygon fill="#2A2A85" points="277.874,224.519 277.964,226.594 278.416,224.338 	"/>
	<polygon fill="#2A2A85" points="282.927,212.066 281.844,217.932 283.559,212.608 	"/>
	<ellipse fill="#2A2A85" cx="270.475" cy="212.427" rx="0.702" ry="0.829"/>
	<ellipse fill="#2A2A85" cx="270.114" cy="216.307" rx="0.702" ry="0.829"/>
	<ellipse fill="#2A2A85" cx="269.934" cy="219.917" rx="0.702" ry="0.829"/>
	<path fill="#2A2A85" d="M251.797,223.165c0,0,16.062,0.361,18.046,1.444l0.181-1.354
		C270.024,223.255,253.241,222.714,251.797,223.165z"/>
	<path fill="#FFFFFF" d="M263.031,202.367l-2.823-0.361c0.003-0.018,0.007-0.036,0.011-0.054l1.481-0.24l-1.278-0.194
		c0.564-0.734,1.933-0.641,1.933-0.641c-2.978-0.361-3.362,1.534-3.362,1.534h1.196c0,0,0-0.001,0-0.002L263.031,202.367z"/>
	<path fill="#FFFFFF" d="M254.506,216.211c0,0-2.166-8.843,3.429-8.211C257.936,208,253.063,208.181,254.506,216.211z"/>
	<path fill="#FFFFFF" d="M267.619,215.075c0,0,0.271,5.594-5.594,4.602C262.024,219.677,266.355,220.218,267.619,215.075z"/>
</g>
</svg>
